# xmcd CD database file
#
# Track frame offsets:
#	183
#	26013
#	42783
#	62713
#	78655
#	95350
#	113520
#	126168
#	149888
#	164163
#
# Disc length: 2414 seconds
#
# Revision: 0
# Processed by: cddbd v1.5.1PL0 Copyright (c) Steve Scherf et al.
# Submitted via: CDex 1.51
#
DISCID=8d096c0a
DTITLE=Neal Black and The Healers - Neal Black and The Healers
DYEAR=1992
DGENRE=Blues
TTITLE0=I Don't Get The Blues
TTITLE1=Pink Chainsaw Boogie
TTITLE2=Lost Without You
TTITLE3=Hell On The Highway
TTITLE4=I'm Gonna Cry
TTITLE5=A Thousand Yesterdays
TTITLE6=Steppin' Out
TTITLE7=Bridge In Tennessee
TTITLE8=Somebody Call Mama
TTITLE9=Out Of The Hole
EXTD=YEAR: 1992
EXTT0=
EXTT1=
EXTT2=
EXTT3=
EXTT4=
EXTT5=
EXTT6=
EXTT7=
EXTT8=
EXTT9=
PLAYORDER=
